<?xml version="1.0" encoding="UTF-8" standalone="no"?>
<!-- Created with Inkscape (http://www.inkscape.org/) -->

<svg
   xmlns:dc="http://purl.org/dc/elements/1.1/"
   xmlns:cc="http://creativecommons.org/ns#"
   xmlns:rdf="http://www.w3.org/1999/02/22-rdf-syntax-ns#"
   xmlns:svg="http://www.w3.org/2000/svg"
   xmlns="http://www.w3.org/2000/svg"
   xmlns:sodipodi="http://sodipodi.sourceforge.net/DTD/sodipodi-0.dtd"
   xmlns:inkscape="http://www.inkscape.org/namespaces/inkscape"
   version="1.1"
   id="svg10"
   width="3264"
   height="3264"
   viewBox="0 0 3264 3264"
   sodipodi:docname="header.svg"
   inkscape:version="0.92.4 (5da689c313, 2019-01-14)">
  <metadata
     id="metadata16">
    <rdf:RDF>
      <cc:Work
         rdf:about="">
        <dc:format>image/svg+xml</dc:format>
        <dc:type
           rdf:resource="http://purl.org/dc/dcmitype/StillImage" />
        <dc:title></dc:title>
      </cc:Work>
    </rdf:RDF>
  </metadata>
  <defs
     id="defs14" />
  <sodipodi:namedview
     pagecolor="#ffffff"
     bordercolor="#666666"
     borderopacity="1"
     objecttolerance="10"
     gridtolerance="10"
     guidetolerance="10"
     inkscape:pageopacity="0"
     inkscape:pageshadow="2"
     inkscape:window-width="1920"
     inkscape:window-height="1001"
     id="namedview12"
     showgrid="false"
     inkscape:zoom="0.24754902"
     inkscape:cx="1632"
     inkscape:cy="1632"
     inkscape:window-x="-9"
     inkscape:window-y="-9"
     inkscape:window-maximized="1"
     inkscape:current-layer="svg10" />
  <path
     inkscape:connector-curvature="0"
     id="path36"
     d="M 4.039598,1636.0396 V 4.0396055 h 1632.000002 1632 V 1636.0396 v 1632 h -1632 H 4.039598 Z"
     style="fill:#fefefe" />
  <path
     inkscape:connector-curvature="0"
     id="path34"
     d="m 4.039598,3109.5986 c 0,-87.1425 0.3375,-158.6495 0.75,-158.9045 0.6118445,-0.3781 741.961472,-175.0863 760.250002,-179.1623 4.92283,-1.0972 102.37997,-24.0343 127.5,-30.008 5.5,-1.3079 186.175,-43.8178 401.5,-94.4664 215.325,-50.6486 394.2,-92.7407 397.5,-93.538 6.8852,-1.6635 116.4371,-27.4354 183,-43.0505 24.75,-5.8061 60.975,-14.332 80.5,-18.9465 32.3784,-7.6522 143.4248,-33.7805 529.5,-124.5873 74.8,-17.5933 139.6,-32.8399 144,-33.8812 4.4,-1.0414 11.825,-2.7984 16.5,-3.9045 4.675,-1.1061 27.85,-6.5583 51.5,-12.1161 23.65,-5.5577 47.5,-11.1757 53,-12.4843 52.8798,-12.5818 513.6648,-120.9395 515.75,-121.2832 l 2.75,-0.4532 v 542.6135 542.6135 h -1632 H 4.039598 Z"
     style="fill:#35d8e2" />
  <path
     inkscape:connector-curvature="0"
     id="path32"
     d="m 4.039598,3109.5986 c 0,-87.1425 0.3375,-158.6495 0.75,-158.9045 0.6118445,-0.3781 741.961472,-175.0863 760.250002,-179.1623 4.92283,-1.0972 102.37997,-24.0343 127.5,-30.008 5.5,-1.3079 186.175,-43.8178 401.5,-94.4664 215.325,-50.6486 394.2,-92.7407 397.5,-93.538 6.8852,-1.6635 116.4371,-27.4354 183,-43.0505 24.75,-5.8061 60.975,-14.3318 80.5,-18.9459 100.1034,-23.6563 476.2972,-112.0933 581,-136.5835 21.175,-4.9529 41.2,-9.6462 44.5,-10.4297 29.3185,-6.9604 273.0144,-63.8353 295,-68.8484 6.05,-1.3796 24.725,-5.7072 41.5,-9.617 26.7639,-6.238 142.6096,-33.0549 190.5,-44.0986 20.1387,-4.644 52.6403,-11.9386 71.5,-16.0473 7.425,-1.6176 17.3807,-3.8226 22.1238,-4.9 9.795,-2.2249 13.8762,-2.4676 13.8762,-0.8249 0,0.6237 -0.4183,2.7612 -0.9296,4.75 -0.5112,1.9888 -1.4545,6.316 -2.0961,9.616 -1.1629,5.9811 -1.5349,7.8494 -4.5792,23 -0.8841,4.4 -2.4141,12.5 -3.4,18 -4.4445,24.7953 -5.0688,28.0884 -5.5928,29.5 -0.3063,0.825 -1.418,6.45 -2.4705,12.5 -1.0525,6.05 -2.577,13.925 -3.3876,17.5 -0.8107,3.575 -1.4897,8.181 -1.5091,10.2356 -0.019,2.0547 -0.4913,5.6547 -1.0488,8 -0.5576,2.3454 -2.3601,11.4644 -4.0057,20.2644 -1.6456,8.8 -3.4368,18.25 -3.9806,21 -0.5438,2.75 -2.3458,12.2 -4.0045,21 -1.6587,8.8 -3.7018,19.15 -4.5402,23 -0.8384,3.85 -1.9987,9.7 -2.5785,13 -0.5797,3.3 -1.5337,8.25 -2.1199,11 -0.5862,2.75 -1.1397,8.15 -1.23,12 -0.09,3.85 -1.1492,11.95 -2.3532,18 -1.2039,6.05 -2.6721,13.475 -3.2626,16.5 -0.5904,3.025 -1.4504,7.3 -1.9111,9.5 -0.4607,2.2 -1.3607,6.7 -2,10 -0.6393,3.3 -1.5393,7.8 -2,10 -0.4607,2.2 -1.3607,6.7 -2,10 -0.6393,3.3 -1.5393,7.8 -2,10 -3.1541,15.0637 -7.6565,40.2941 -8.9225,50 -0.5739,4.4 -1.4595,10.025 -1.9679,12.5 -0.5085,2.475 -1.4578,7.2 -2.1096,10.5 -0.6518,3.3 -1.5518,7.8 -2,10 -0.4482,2.2 -1.3482,6.7 -2,10 -0.6518,3.3 -1.5444,7.8 -1.9836,10 -0.7284,3.6488 -1.5808,8.1349 -5.5101,29 -2.0857,11.0753 -4.4108,22.5747 -5.6505,27.9468 -0.6278,2.7208 -1.1081,7.4458 -1.0672,10.5 0.063,4.7069 -2.0006,17.3385 -6.7886,41.5532 -0.5438,2.75 -2.3438,12.2 -4,21 -3.3356,17.7228 -4.7491,25.026 -6,31 -0.4607,2.2 -1.3674,6.7 -2.0149,10 -2.6837,13.6761 -3.2005,16.166 -4.0718,19.616 -0.5023,1.9888 -0.9133,5.2292 -0.9133,7.2008 0,1.9716 -0.4586,5.9694 -1.019,8.884 -0.5605,2.9146 -1.4579,7.5492 -1.9943,10.2992 -0.5365,2.75 -2.3305,12.2 -3.9867,21 -3.3356,17.7228 -4.7491,25.026 -6,31 -0.4607,2.2 -1.3607,6.7 -2,10 -0.6393,3.3 -1.5393,7.8 -2,10 -0.4607,2.2 -1.3607,6.7 -2,10 -0.6393,3.3 -1.5528,7.8 -2.0299,10 -1.8633,8.5921 -2.3251,12.2925 -2.4961,20 -0.098,4.4 -0.6626,9.8 -1.2554,12 -0.5927,2.2 -1.596,6.7 -2.2294,10 -0.6334,3.3 -1.5285,7.8 -1.9892,10 -1.2509,5.974 -2.6644,13.2772 -6,31 -3.3356,17.7228 -4.7491,25.026 -6,31 -3.0493,14.5628 -5.7565,29.9654 -6.5034,37 -0.3503,3.3 -1.0237,7.575 -1.4964,9.5 -0.9708,3.9537 -1.7369,7.8483 -6.0002,30.5 -2.8661,15.2284 -4.0467,21.3242 -6.1006,31.5 -0.4995,2.475 -1.8097,9.45 -2.9115,15.5 -2.9638,16.2751 -4.0153,21.5648 -5.1583,25.9498 -0.5663,2.1724 -1.0016,6.6724 -0.9675,10 0.034,3.3276 -0.3728,8.0752 -0.9044,10.5502 -0.5316,2.475 -1.9001,9.45 -3.041,15.5 -2.8627,15.1797 -2.9562,15.5 -4.5251,15.5 -0.7654,0 -1.3916,0.45 -1.3916,1 0,0.6662 -502.8333,1 -1506.5,1 H 4.039598 Z M 3220.5709,2198.1252 c 0.5671,-0.5765 2.5399,-1.3498 4.3839,-1.7186 2.626,-0.5252 3.2527,-0.3667 2.8914,0.7312 -0.2644,0.8036 -2.1351,1.537 -4.3839,1.7186 -2.727,0.2203 -3.6084,0 -2.8914,-0.7312 z"
     style="fill:#35d7d7" />
  <path
     inkscape:connector-curvature="0"
     id="path30"
     d="m 4.039598,3109.5986 c 0,-87.1425 0.3375,-158.6495 0.75,-158.9045 0.6118445,-0.3781 741.961472,-175.0863 760.250002,-179.1623 4.92283,-1.0972 102.37997,-24.0343 127.5,-30.008 5.5,-1.3079 186.175,-43.8178 401.5,-94.4664 215.325,-50.6486 394.2,-92.7397 397.5,-93.5358 3.3,-0.796 33.9,-8.0027 68,-16.0149 34.1,-8.0121 65.6,-15.4253 70,-16.4739 23.1976,-5.528 204.7187,-48.0892 339,-79.485 55.55,-12.988 104.6,-24.4728 109,-25.5219 8.303,-1.9796 27.932,-6.5673 179.5,-41.9529 49.775,-11.6206 99.95,-23.3352 111.5,-26.0323 151.0073,-35.2633 323.1313,-74.8833 356.5,-82.0604 2.475,-0.5323 8.473,-1.8617 13.329,-2.9543 13.6231,-3.065 13.9972,-2.8771 11.7414,5.8976 -0.5112,1.9888 -1.4478,6.316 -2.0812,9.616 -1.1946,6.224 -2.0037,10.162 -4.0062,19.5 -0.6487,3.025 -1.2734,9.1 -1.3882,13.5 -0.1148,4.4 -0.9766,11.6 -1.9151,16 -0.9385,4.4 -2.1869,10.475 -2.7743,13.5 -0.5873,3.025 -1.4447,7.3 -1.9054,9.5 -0.4607,2.2 -1.3607,6.7 -2,10 -0.6393,3.3 -1.5393,7.8 -2,10 -1.2509,5.974 -2.6644,13.2772 -6,31 -2.6984,14.3372 -4.1261,21.759 -5.6749,29.5 -0.2751,1.375 -0.9036,5.875 -1.3966,10 -0.4931,4.125 -1.312,9.525 -1.8199,12 -1.6712,8.1436 -3.272,16.4206 -4.1581,21.5 -0.4798,2.75 -1.5603,8.15 -2.4012,12 -0.841,3.85 -2.8861,14.2 -4.5448,23 -1.6587,8.8 -3.4604,18.25 -4.0037,21 -4.8687,24.6435 -6.1346,32.4755 -6.4368,39.8242 -0.1922,4.6725 -0.8352,9.9985 -1.4291,11.8356 -1.0172,3.1469 -1.7267,6.7746 -6.13,31.3402 -0.9859,5.5 -2.5213,13.6 -3.4121,18 -0.8907,4.4 -2.1,10.475 -2.6874,13.5 -0.5873,3.025 -1.4447,7.3 -1.9054,9.5 -0.4607,2.2 -1.3674,6.7 -2.0149,10 -2.649,13.4992 -3.1966,16.1539 -4.0226,19.5 -0.4752,1.925 -1.3356,8.1545 -1.9119,13.8434 -0.5764,5.6889 -1.295,10.7431 -1.597,11.2316 -0.3019,0.4885 -1.3805,5.734 -2.3968,11.6566 -1.0164,5.9226 -2.5759,14.3684 -3.4657,18.7684 -0.8898,4.4 -2.0983,10.475 -2.6857,13.5 -0.5873,3.025 -1.4447,7.3 -1.9054,9.5 -0.4607,2.2 -1.3607,6.7 -2,10 -0.6393,3.3 -1.5393,7.8 -2,10 -4.9535,23.6573 -7.7079,40.283 -7.2566,43.8018 0.2681,2.091 0.022,5.691 -0.5467,8 -0.5688,2.309 -1.5574,6.8982 -2.1967,10.1982 -0.6393,3.3 -1.5393,7.8 -2,10 -1.2509,5.974 -2.6644,13.2772 -6,31 -1.6562,8.8 -3.4562,18.25 -4,21 -0.5438,2.75 -2.3438,12.2 -4,21 -1.6562,8.8 -3.442,18.25 -3.9683,21 -0.5263,2.75 -1.1773,7.361 -1.4468,10.2467 -0.2694,2.8856 -1.1501,8.0606 -1.9571,11.5 -0.8069,3.4393 -2.4311,11.6533 -3.6093,18.2533 -1.1782,6.6 -2.5278,13.8 -2.9991,16 -1.1852,5.5322 -2.5172,12.3921 -6.0194,31 -1.6562,8.8 -3.5021,18.475 -4.1018,21.5 -0.5998,3.025 -1.5347,7.75 -2.0777,10.5 -0.5429,2.75 -1.357,6.4609 -1.8091,8.2465 -0.4521,1.7855 -0.5921,4.9604 -0.3112,7.0553 0.281,2.0948 -0.2158,7.6089 -1.104,12.2535 -2.3803,12.4469 -3.6571,18.9596 -4.5962,23.4447 -0.4607,2.2 -1.3607,6.7 -2,10 -0.6393,3.3 -1.5393,7.8 -2,10 -0.4607,2.2 -1.3607,6.7 -2,10 -0.6393,3.3 -1.5393,7.8 -2,10 -0.4607,2.2 -1.3202,6.475 -1.9102,9.5 -0.5899,3.025 -2.2237,11.35 -3.6305,18.5 -1.4069,7.15 -3.4294,19.075 -4.4944,26.5 -1.0651,7.425 -2.3512,15.525 -2.8581,18 -0.507,2.475 -1.455,7.2 -2.1068,10.5 -0.6518,3.3 -1.6006,8.025 -2.1084,10.5 -0.5079,2.475 -1.2064,6.4717 -1.5524,8.8815 -0.4446,3.0974 -1.1726,4.5237 -2.4841,4.8666 -1.0203,0.2669 -1.8551,0.8827 -1.8551,1.3685 0,0.5108 -582.3452,0.8834 -1380.5,0.8834 l -1380.500002,0 z M 2958.5396,2260.0396 c 0.3399,-0.55 1.0415,-1 1.559,-1 0.5176,0 0.941,0.45 0.941,1 0,0.55 -0.7016,1 -1.559,1 -0.8575,0 -1.2809,-0.45 -0.941,-1 z"
     style="fill:#35d7c7" />
  <path
     inkscape:connector-curvature="0"
     id="path28"
     d="m 4.039598,3109.5986 c 0,-87.1425 0.3375,-158.6495 0.75,-158.9045 0.6090973,-0.3764 741.609452,-175.0039 760.250002,-179.164 3.025,-0.675 33.625,-7.8623 68,-15.9716 72.05169,-16.9976 86.45194,-20.3845 150.5,-35.3974 25.85,-6.0592 102.8,-24.1191 171,-40.1332 221.1168,-51.9204 468.3009,-109.8752 708.5,-166.115 114.1648,-26.7303 416.3996,-97.2547 441.5,-103.021 7.15,-1.6425 37.3,-8.6014 67,-15.4641 29.7,-6.8627 64.575,-14.9202 77.5,-17.9055 36.9275,-8.5293 73.0786,-16.6414 78,-17.5029 2.475,-0.4332 7.265,-1.5059 10.6443,-2.3838 8.1271,-2.111 10.3557,-2.0585 10.3557,0.2443 0,1.5794 -1.713,10.8992 -6.0029,32.6597 -1.2745,6.4647 -6.634,34.8088 -7.5635,40 -0.3939,2.2 -0.8018,6.925 -0.9064,10.5 -0.1046,3.575 -0.7189,8.75 -1.3651,11.5 -0.6462,2.75 -2.5246,12.2 -4.1742,21 -3.2728,17.4594 -4.703,24.8633 -5.9879,31 -0.4607,2.2 -1.3607,6.7 -2,10 -0.6393,3.3 -1.5393,7.8 -2,10 -0.4607,2.2 -1.3607,6.7 -2,10 -0.6393,3.3 -1.5523,7.8 -2.0288,10 -1.7323,7.9986 -3.3223,18.0467 -3.1647,20 0.1602,1.9863 -3.2369,20.952 -6.8065,38 -0.4607,2.2 -1.3607,6.7 -2,10 -0.6393,3.3 -1.5393,7.8 -2,10 -0.4607,2.2 -1.3607,6.7 -2,10 -0.6393,3.3 -1.5393,7.8 -2,10 -0.4607,2.2 -1.3208,6.475 -1.9114,9.5 -0.5906,3.025 -2.4271,12.4407 -4.0812,20.9238 -1.6541,8.4832 -3.0074,18.2642 -3.0074,21.7357 0,3.4715 -0.4562,8.2308 -1.0137,10.5761 -0.5576,2.3454 -2.3601,11.4644 -4.0057,20.2644 -3.2381,17.3166 -4.6756,24.7674 -5.9806,31 -1.2509,5.974 -2.6644,13.2772 -6,31 -4.3957,23.3555 -5.0424,26.6172 -6.0704,30.616 -0.5113,1.9888 -0.9296,5.1887 -0.9296,7.1108 0,1.9221 -0.9047,8.1699 -2.0104,13.884 -3.4154,17.6499 -4.1235,21.2529 -4.9896,25.3892 -1.3241,6.3238 -2.826,14.1335 -5,26 -2.174,11.8665 -3.6759,19.6762 -5,26 -0.4607,2.2 -1.3674,6.7 -2.0149,10 -2.756,14.0448 -3.1913,16.157 -3.9498,19.1686 -0.4806,1.9079 -0.3969,3.5698 0.2103,4.177 0.9642,0.9642 0.1735,7.6176 -2.2168,18.6544 -0.4765,2.2 -1.3895,6.7 -2.0288,10 -0.6393,3.3 -1.5393,7.8 -2,10 -0.4607,2.2 -1.3607,6.7 -2,10 -0.6393,3.3 -1.5393,7.8 -2,10 -0.4607,2.2 -1.3674,6.7 -2.0149,10 -0.6476,3.3 -1.587,8.025 -2.0876,10.5 -0.5007,2.475 -2.2545,11.7 -3.8975,20.5 -1.643,8.8 -3.4675,18.0823 -4.0546,20.6274 -0.5871,2.5451 -1.0759,6.5951 -1.0863,9 -0.01,2.4049 -0.4013,5.9476 -0.8686,7.8726 -0.4673,1.925 -1.3679,6.2 -2.0013,9.5 -0.6334,3.3 -1.5285,7.8 -1.9892,10 -0.4607,2.2 -1.3181,6.475 -1.9054,9.5 -0.5874,3.025 -1.7913,9.1 -2.6754,13.5 -0.8841,4.4 -2.2285,11.6 -2.9875,16 -1.3046,7.5623 -2.5194,13.8673 -4.4317,23 -0.8532,4.0747 -1.3527,6.6094 -5.1243,26 -1.1767,6.05 -2.0868,13.025 -2.0225,15.5 0.064,2.475 -0.5111,7.875 -1.2788,12 -0.7678,4.125 -2.1236,11.55 -3.0128,16.5 -0.8893,4.95 -2.0233,10.35 -2.52,12 -0.4968,1.65 -1.205,5.3875 -1.5739,8.3056 -0.4362,3.4506 -1.4004,5.9854 -2.7577,7.25 -2.0648,1.9236 -14.7893,1.9444 -1189.8986,1.9444 l -1187.811402,0 z M 2558.0396,2354.0396 c 1.9759,-1.2769 5.2892,-1.2769 4.5,0 -0.3399,0.55 -1.829,0.9931 -3.309,0.9847 -2.1048,-0.012 -2.3642,-0.2265 -1.191,-0.9847 z"
     style="fill:#35d7af" />
  <path
     inkscape:connector-curvature="0"
     id="path26"
     d="m 4.2865214,3109.3932 0.2530766,-158.6463 59,-13.8328 c 32.45,-7.608 64.625002,-15.1666 71.500002,-16.7969 14.72994,-3.493 46.24061,-10.8932 234.5,-55.0717 77.55,-18.1985 144.6,-33.9423 149,-34.9862 13.40116,-3.1795 212.28012,-49.8575 309,-72.5241 31.9,-7.4759 61.825,-14.4979 66.5,-15.6045 4.675,-1.1066 12.1,-2.8553 16.5,-3.8861 4.4,-1.0307 14.75,-3.4566 23,-5.3909 8.25,-1.9343 36.375,-8.5211 62.5,-14.6373 75.7304,-17.7297 142.3808,-33.3527 185.5,-43.4818 81.0364,-19.0361 386.0631,-90.298 505.5,-118.0975 123.6294,-28.7752 131.4188,-30.5799 183,-42.3987 26.675,-6.1121 52.1,-11.9504 56.5,-12.9742 4.4,-1.0237 13.4,-3.0435 20,-4.4883 6.6,-1.4449 17.046,-3.7317 23.2133,-5.0817 13.6352,-2.9847 15.6045,-3.0778 14.9074,-0.7046 -0.2827,0.9625 -0.7862,3.55 -1.1187,5.75 -0.3326,2.2 -0.995,5.8 -1.4721,8 -0.4771,2.2 -1.3906,6.7 -2.0299,10 -0.6393,3.3 -1.5393,7.8 -2,10 -0.4607,2.2 -1.3674,6.7 -2.0149,10 -0.6476,3.3 -1.587,8.025 -2.0876,10.5 -0.5007,2.475 -2.26,11.7 -3.9096,20.5 -1.6496,8.8 -3.49,18.475 -4.0897,21.5 -0.5998,3.025 -1.5363,7.75 -2.0811,10.5 -0.5448,2.75 -1.4016,6.6272 -1.9038,8.616 -0.5023,1.9888 -0.9133,5.7616 -0.9133,8.384 0,2.6224 -0.4183,6.3952 -0.9296,8.384 -0.5112,1.9888 -1.4478,6.316 -2.0812,9.616 -0.6334,3.3 -1.5285,7.8 -1.9892,10 -1.2509,5.974 -2.6644,13.2772 -6,31 -3.3356,17.7228 -4.7491,25.026 -6,31 -0.8523,4.0703 -1.6954,8.3534 -4.6257,23.5 -0.9045,4.675 -1.576,10.52 -1.4923,12.9889 0.1363,4.0208 -0.5842,8.7515 -3.8857,25.5111 -0.5417,2.75 -2.3401,12.2 -3.9963,21 -3.3356,17.7228 -4.7491,25.026 -6,31 -0.4607,2.2 -1.3607,6.7 -2,10 -0.6393,3.3 -1.5393,7.8 -2,10 -0.4607,2.2 -1.3607,6.7 -2,10 -0.6393,3.3 -1.5753,7.8 -2.0798,10 -0.5046,2.2 -1.3795,8.05 -1.9444,13 -0.95,8.3254 -5.7893,35.0058 -9.9758,55 -0.4607,2.2 -1.3607,6.7 -2,10 -0.6393,3.3 -1.5393,7.8 -2,10 -0.4607,2.2 -1.3181,6.475 -1.9054,9.5 -0.5874,3.025 -1.7912,9.1 -2.6753,13.5 -3.7756,18.7918 -4.4669,23.3459 -4.4777,29.5 -0.01,3.575 -0.4141,8.075 -0.9061,10 -0.4921,1.925 -1.4196,6.2 -2.0612,9.5 -0.6416,3.3 -1.5762,8.025 -2.0768,10.5 -0.5007,2.475 -2.26,11.7 -3.9096,20.5 -3.2667,17.4266 -4.1363,21.9209 -6.579,34 -0.8898,4.4 -2.461,12.725 -3.4917,18.5 -1.0306,5.775 -2.3661,12.525 -2.9678,15 -0.6016,2.475 -1.2201,8.1159 -1.3742,12.5353 -0.1542,4.4194 -0.7996,10.2694 -1.4342,13 -0.6346,2.7306 -2.5035,12.1647 -4.1531,20.9647 -3.2728,17.4594 -4.703,24.8633 -5.9879,31 -0.4607,2.2 -1.3607,6.7 -2,10 -0.6393,3.3 -1.5393,7.8 -2,10 -0.4607,2.2 -1.3607,6.7 -2,10 -0.6393,3.3 -1.5393,7.8 -2,10 -0.4607,2.2 -1.3503,6.475 -1.977,9.5 -0.6266,3.025 -1.2851,7.975 -1.4632,11 -0.178,3.025 -0.3769,6.27 -0.4418,7.211 -0.065,0.9411 -1.1029,2.6286 -2.3066,3.75 l -2.1885,2.039 H 921.84796 4.0334449 Z M 1989.5396,2488.0396 c 2.7314,-1.1737 3.5,-1.1737 3.5,0 0,0.55 -1.2375,0.9684 -2.75,0.9297 -2.4368,-0.062 -2.5223,-0.1681 -0.75,-0.9297 z"
     style="fill:#35d690" />
  <path
     inkscape:connector-curvature="0"
     id="path24"
     d="m 4.039598,3109.7607 v -158.2789 l 97.250002,-22.8181 c 53.4875,-12.5499 127.625,-29.9465 164.75,-38.659 37.125,-8.7125 95.625,-22.4204 130,-30.4621 34.375,-8.0416 77.575,-18.1679 96,-22.5028 45.11552,-10.6144 124.00309,-29.0892 245.5,-57.4941 55.55,-12.987 115.175,-26.9394 132.5,-31.0052 28.1068,-6.596 82.15018,-19.1913 220.5,-51.3896 23.65,-5.5041 59.65,-13.8567 80,-18.5613 20.35,-4.7046 38.8,-8.9987 41,-9.5425 8.0452,-1.9884 82.6474,-19.0102 105,-23.9575 12.65,-2.7999 25.925,-5.7577 29.5,-6.5729 11.1926,-2.5525 10.9277,-2.7044 10.9347,6.2729 0.01,8.1337 -0.9716,14.8228 -4.9347,33.75 -0.4607,2.2 -1.3607,6.7 -2,10 -0.6393,3.3 -1.5393,7.8 -2,10 -1.2849,6.1367 -2.7151,13.5406 -5.9879,31 -1.6496,8.8 -3.4089,18.025 -3.9096,20.5 -0.5006,2.475 -1.4352,7.2 -2.0768,10.5 -0.6416,3.3 -1.5849,7.6272 -2.0961,9.616 -0.5113,1.9888 -0.9296,5.7616 -0.9296,8.384 0,2.6224 -0.4183,6.3952 -0.9296,8.384 -0.5112,1.9888 -1.4478,6.316 -2.0812,9.616 -0.6334,3.3 -1.5285,7.8 -1.9892,10 -1.2509,5.974 -2.6644,13.2772 -6,31 -2.8661,15.2284 -4.0467,21.3242 -6.1006,31.5 -3.4963,17.3225 -5.0649,26.7951 -5.1057,30.8333 -0.042,4.145 -1.8741,15.8616 -4.7957,30.6667 -0.5426,2.75 -2.3418,12.2 -3.998,21 -3.3356,17.7228 -4.7491,25.026 -6,31 -0.4607,2.2 -1.3607,6.7 -2,10 -0.6393,3.3 -1.5393,7.8 -2,10 -0.9178,4.3834 -2.3545,11.7211 -4.1116,21 -0.6249,3.3 -1.1033,7.125 -1.0631,8.5 0.04,1.375 -0.3569,4.525 -0.8825,7 -0.5256,2.475 -2.3053,11.7 -3.9549,20.5 -3.2728,17.4594 -4.703,24.8633 -5.9879,31 -0.4607,2.2 -1.3607,6.7 -2,10 -0.6393,3.3 -1.5393,7.8 -2,10 -0.4607,2.2 -1.3208,6.475 -1.9114,9.5 -0.5906,3.025 -2.4271,12.4407 -4.0812,20.9238 -1.6541,8.4832 -3.0074,18.331 -3.0074,21.884 0,3.5531 -0.4183,8.0874 -0.9296,10.0762 -0.5112,1.9888 -1.4545,6.316 -2.0961,9.616 -0.6416,3.3 -1.5762,8.025 -2.0768,10.5 -0.5007,2.475 -2.2545,11.7 -3.8975,20.5 -1.643,8.8 -3.4103,18.025 -3.9273,20.5 -0.5171,2.475 -1.2195,6.3 -1.561,8.5 -0.3415,2.2 -1.2399,6.7 -1.9964,10 -0.7565,3.3 -1.6524,7.6875 -1.9907,9.75 -0.3827,2.3328 -1.165,3.75 -2.0699,3.75 -0.8001,0 -1.4547,0.45 -1.4547,1 0,0.6656 -206.8333,1 -618.5,1 H 4.039598 Z"
     style="fill:#36d670" />
  <path
     inkscape:connector-curvature="0"
     id="path22"
     d="m 4.039598,3110.0396 c 0,-86.9 0.246674,-158 0.5481644,-158 0.5141418,0 69.0453076,-15.9614 161.4518376,-37.6032 38.4473,-9.0045 47.40148,-11.103 72,-16.8745 5.775,-1.355 28.95,-6.7657 51.5,-12.0238 22.55,-5.2581 43.7,-10.1965 47,-10.9743 19.59899,-4.6193 135.61923,-31.6185 202,-47.0076 27.5,-6.3753 53.825,-12.4806 58.5,-13.5674 35.5555,-8.265 78.41659,-17.9633 97.36295,-22.0304 4.87462,-1.0464 10.56393,-2.3606 12.64291,-2.9204 2.07898,-0.5598 4.43644,-0.7659 5.2388,-0.458 1.66547,0.6391 1.74786,-0.1204 -2.32828,21.4596 -4.38074,23.1925 -4.97346,26.1741 -5.9868,30.116 -0.51127,1.9888 -0.92958,5.7616 -0.92958,8.384 0,2.6224 -0.41831,6.3952 -0.92958,8.384 -0.51126,1.9888 -1.44781,6.316 -2.08122,9.616 -0.63341,3.3 -1.52855,7.8 -1.9892,10 -0.46065,2.2 -1.36737,6.7 -2.01492,10 -0.64756,3.3 -1.58699,8.025 -2.08762,10.5 -0.50063,2.475 -2.25992,11.7 -3.90953,20.5 -2.84513,15.1777 -4.00023,21.1538 -6.08851,31.5 -3.66451,18.1555 -4.94284,26.2878 -4.40071,27.9959 0.54097,1.7045 -0.64791,8.9474 -5.49952,33.5041 -0.54331,2.75 -2.34295,12.2 -3.99919,21 -1.65624,8.8 -3.50207,18.475 -4.10183,21.5 -1.63687,8.2559 -2.99827,15.0377 -3.91445,19.5 -0.4517,2.2 -1.34437,6.7 -1.98372,10 -0.63935,3.3 -1.57527,7.8 -2.07982,10 -0.50456,2.2 -1.37542,8.05 -1.93526,13 -0.55984,4.95 -1.46334,11.025 -2.00779,13.5 -0.54445,2.475 -2.33959,11.7 -3.9892,20.5 -3.27286,17.4594 -4.70298,24.8633 -5.98793,31 -0.46065,2.2 -1.36065,6.7 -2,10 -0.63935,3.3 -1.53935,7.8 -2,10 -0.92436,4.4146 -1.76459,8.6886 -5.53561,28.1582 -1.48906,7.6879 -2.26724,14.2791 -1.87185,15.8545 0.37221,1.483 0.1296,5.2368 -0.53913,8.3418 -0.66872,3.105 -1.60621,7.4455 -2.08329,9.6455 -0.47709,2.2 -1.13626,5.6893 -1.46483,7.754 -0.32857,2.0646 -1.56153,4.6521 -2.73991,5.75 -2.13153,1.9858 -3.72916,1.996 -311.95394,1.996 l -309.811442,0 z m 719.269032,-323.693 c 0.97297,-0.2535 2.32297,-0.2369 3,0.037 0.67703,0.2739 -0.11903,0.4813 -1.76903,0.461 -1.65,-0.02 -2.20394,-0.2445 -1.23097,-0.4981 z"
     style="fill:#36d650" />
</svg>
